<svg width="24" height="24" viewBox="0 0 24 24" fill="none" xmlns="http://www.w3.org/2000/svg">
<path fill-rule="evenodd" clip-rule="evenodd" d="M9.40195 9.39593C9.07169 9.72955 9.07169 10.2705 9.40195 10.6041L13.3618 14.6041C13.692 14.9377 14.2275 14.9377 14.5577 14.6041C14.888 14.2705 14.888 13.7295 14.5577 13.3959L10.5979 9.39593C10.2677 9.06231 9.73222 9.06231 9.40195 9.39593Z" fill="black"/>
<path fill-rule="evenodd" clip-rule="evenodd" d="M14.598 9.39593C14.9283 9.72955 14.9283 10.2705 14.598 10.6041L10.6382 14.6041C10.308 14.9377 9.77252 14.9377 9.44225 14.6041C9.11199 14.2705 9.11199 13.7295 9.44225 13.3959L13.4021 9.39593C13.7323 9.06231 14.2678 9.06231 14.598 9.39593Z" fill="black"/>
<path d="M20 12C20 16.4183 16.4183 20 12 20C7.58172 20 4 16.4183 4 12C4 7.58172 7.58172 4 12 4C16.4183 4 20 7.58172 20 12Z" fill="black" fill-opacity="0.12"/>
<path fill-rule="evenodd" clip-rule="evenodd" d="M11.9999 4.85C8.05107 4.85 4.8499 8.05117 4.8499 12C4.8499 15.9488 8.05107 19.15 11.9999 19.15C15.9487 19.15 19.1499 15.9488 19.1499 12C19.1499 8.05117 15.9487 4.85 11.9999 4.85ZM3.1499 12C3.1499 7.11228 7.11218 3.15 11.9999 3.15C16.8876 3.15 20.8499 7.11228 20.8499 12C20.8499 16.8877 16.8876 20.85 11.9999 20.85C7.11218 20.85 3.1499 16.8877 3.1499 12Z" fill="black"/>
</svg>
